<mxfile host="65bd71144e">
    <diagram id="GWSkpvKr_A78WZ6ltbMy" name="ページ1">
        <mxGraphModel dx="1878" dy="546" grid="1" gridSize="10" guides="1" tooltips="1" connect="1" arrows="1" fold="1" page="1" pageScale="1" pageWidth="827" pageHeight="1169" math="0" shadow="0">
            <root>
                <mxCell id="0"/>
                <mxCell id="1" parent="0"/>
                <mxCell id="80" value="" style="group" vertex="1" connectable="0" parent="1">
                    <mxGeometry x="-816" y="70" width="806" height="424.5" as="geometry"/>
                </mxCell>
                <mxCell id="47" value="" style="rounded=0;whiteSpace=wrap;html=1;fontSize=24;strokeColor=#F0F0F0;strokeWidth=6;" vertex="1" parent="80">
                    <mxGeometry x="126" width="680" height="330" as="geometry"/>
                </mxCell>
                <mxCell id="46" value="" style="group" vertex="1" connectable="0" parent="80">
                    <mxGeometry x="189" y="54.5" width="540" height="221" as="geometry"/>
                </mxCell>
                <mxCell id="16" value="" style="group" vertex="1" connectable="0" parent="46">
                    <mxGeometry x="54" y="124.6858108108108" width="162" height="95.56756756756756" as="geometry"/>
                </mxCell>
                <mxCell id="4" value="" style="group" vertex="1" connectable="0" parent="16">
                    <mxGeometry x="63" y="13.43918918918919" width="99" height="82.12837837837837" as="geometry"/>
                </mxCell>
                <mxCell id="2" value="" style="outlineConnect=0;dashed=0;verticalLabelPosition=bottom;verticalAlign=top;align=center;html=1;shape=mxgraph.aws3.ec2_compute_container;fillColor=#F58534;gradientColor=none;" vertex="1" parent="4">
                    <mxGeometry width="99" height="52.26351351351351" as="geometry"/>
                </mxCell>
                <mxCell id="3" value="&lt;font style=&quot;font-size: 18px;&quot;&gt;Web&lt;/font&gt;" style="text;html=1;strokeColor=none;fillColor=none;align=center;verticalAlign=middle;whiteSpace=wrap;rounded=0;" vertex="1" parent="4">
                    <mxGeometry x="22.5" y="53.01013513513514" width="54" height="22.39864864864865" as="geometry"/>
                </mxCell>
                <mxCell id="9" value="" style="rounded=0;whiteSpace=wrap;html=1;fontSize=18;" vertex="1" parent="16">
                    <mxGeometry y="20" width="63" height="39.14" as="geometry"/>
                </mxCell>
                <mxCell id="11" value="3000" style="text;html=1;strokeColor=none;fillColor=none;align=center;verticalAlign=middle;whiteSpace=wrap;rounded=0;fontSize=18;" vertex="1" parent="16">
                    <mxGeometry x="7.2" width="54" height="22.39864864864865" as="geometry"/>
                </mxCell>
                <mxCell id="17" value="" style="group" vertex="1" connectable="0" parent="46">
                    <mxGeometry x="288" y="123.93918918918918" width="162" height="97.0608108108108" as="geometry"/>
                </mxCell>
                <mxCell id="5" value="" style="group" vertex="1" connectable="0" parent="17">
                    <mxGeometry x="63" y="14.932432432432432" width="99" height="82.12837837837837" as="geometry"/>
                </mxCell>
                <mxCell id="6" value="" style="outlineConnect=0;dashed=0;verticalLabelPosition=bottom;verticalAlign=top;align=center;html=1;shape=mxgraph.aws3.ec2_compute_container;fillColor=#F58534;gradientColor=none;" vertex="1" parent="5">
                    <mxGeometry width="99" height="52.26351351351351" as="geometry"/>
                </mxCell>
                <mxCell id="7" value="&lt;font style=&quot;font-size: 18px;&quot;&gt;api&lt;/font&gt;" style="text;html=1;strokeColor=none;fillColor=none;align=center;verticalAlign=middle;whiteSpace=wrap;rounded=0;" vertex="1" parent="5">
                    <mxGeometry x="22.5" y="52.26351351351351" width="54" height="22.39864864864865" as="geometry"/>
                </mxCell>
                <mxCell id="10" value="&lt;span style=&quot;color: rgba(0, 0, 0, 0); font-family: monospace; font-size: 0px; text-align: start;&quot;&gt;%3CmxGraphModel%3E%3Croot%3E%3CmxCell%20id%3D%220%22%2F%3E%3CmxCell%20id%3D%221%22%20parent%3D%220%22%2F%3E%3CmxCell%20id%3D%222%22%20value%3D%22%22%20style%3D%22group%22%20vertex%3D%221%22%20connectable%3D%220%22%20parent%3D%221%22%3E%3CmxGeometry%20x%3D%22180%22%20y%3D%22170%22%20width%3D%22540%22%20height%3D%22221%22%20as%3D%22geometry%22%2F%3E%3C%2FmxCell%3E%3CmxCell%20id%3D%223%22%20value%3D%22%22%20style%3D%22group%22%20vertex%3D%221%22%20connectable%3D%220%22%20parent%3D%222%22%3E%3CmxGeometry%20x%3D%2254%22%20y%3D%22124.6858108108108%22%20width%3D%22162%22%20height%3D%2295.56756756756756%22%20as%3D%22geometry%22%2F%3E%3C%2FmxCell%3E%3CmxCell%20id%3D%224%22%20value%3D%22%22%20style%3D%22group%22%20vertex%3D%221%22%20connectable%3D%220%22%20parent%3D%223%22%3E%3CmxGeometry%20x%3D%2263%22%20y%3D%2213.43918918918919%22%20width%3D%2299%22%20height%3D%2282.12837837837837%22%20as%3D%22geometry%22%2F%3E%3C%2FmxCell%3E%3CmxCell%20id%3D%225%22%20value%3D%22%22%20style%3D%22outlineConnect%3D0%3Bdashed%3D0%3BverticalLabelPosition%3Dbottom%3BverticalAlign%3Dtop%3Balign%3Dcenter%3Bhtml%3D1%3Bshape%3Dmxgraph.aws3.ec2_compute_container%3BfillColor%3D%23F58534%3BgradientColor%3Dnone%3B%22%20vertex%3D%221%22%20parent%3D%224%22%3E%3CmxGeometry%20width%3D%2299%22%20height%3D%2252.26351351351351%22%20as%3D%22geometry%22%2F%3E%3C%2FmxCell%3E%3CmxCell%20id%3D%226%22%20value%3D%22%26lt%3Bfont%20style%3D%26quot%3Bfont-size%3A%2018px%3B%26quot%3B%26gt%3BWeb%26lt%3B%2Ffont%26gt%3B%22%20style%3D%22text%3Bhtml%3D1%3BstrokeColor%3Dnone%3BfillColor%3Dnone%3Balign%3Dcenter%3BverticalAlign%3Dmiddle%3BwhiteSpace%3Dwrap%3Brounded%3D0%3B%22%20vertex%3D%221%22%20parent%3D%224%22%3E%3CmxGeometry%20x%3D%2222.5%22%20y%3D%2253.01013513513514%22%20width%3D%2254%22%20height%3D%2222.39864864864865%22%20as%3D%22geometry%22%2F%3E%3C%2FmxCell%3E%3CmxCell%20id%3D%227%22%20value%3D%22%22%20style%3D%22rounded%3D0%3BwhiteSpace%3Dwrap%3Bhtml%3D1%3BfontSize%3D18%3B%22%20vertex%3D%221%22%20parent%3D%223%22%3E%3CmxGeometry%20y%3D%2220%22%20width%3D%2263%22%20height%3D%2239.14%22%20as%3D%22geometry%22%2F%3E%3C%2FmxCell%3E%3CmxCell%20id%3D%228%22%20value%3D%223000%22%20style%3D%22text%3Bhtml%3D1%3BstrokeColor%3Dnone%3BfillColor%3Dnone%3Balign%3Dcenter%3BverticalAlign%3Dmiddle%3BwhiteSpace%3Dwrap%3Brounded%3D0%3BfontSize%3D18%3B%22%20vertex%3D%221%22%20parent%3D%223%22%3E%3CmxGeometry%20x%3D%227.2%22%20width%3D%2254%22%20height%3D%2222.39864864864865%22%20as%3D%22geometry%22%2F%3E%3C%2FmxCell%3E%3CmxCell%20id%3D%229%22%20value%3D%22%22%20style%3D%22group%22%20vertex%3D%221%22%20connectable%3D%220%22%20parent%3D%222%22%3E%3CmxGeometry%20x%3D%22288%22%20y%3D%22123.93918918918918%22%20width%3D%22162%22%20height%3D%2297.0608108108108%22%20as%3D%22geometry%22%2F%3E%3C%2FmxCell%3E%3CmxCell%20id%3D%2210%22%20value%3D%22%22%20style%3D%22group%22%20vertex%3D%221%22%20connectable%3D%220%22%20parent%3D%229%22%3E%3CmxGeometry%20x%3D%2263%22%20y%3D%2214.932432432432432%22%20width%3D%2299%22%20height%3D%2282.12837837837837%22%20as%3D%22geometry%22%2F%3E%3C%2FmxCell%3E%3CmxCell%20id%3D%2211%22%20value%3D%22%22%20style%3D%22outlineConnect%3D0%3Bdashed%3D0%3BverticalLabelPosition%3Dbottom%3BverticalAlign%3Dtop%3Balign%3Dcenter%3Bhtml%3D1%3Bshape%3Dmxgraph.aws3.ec2_compute_container%3BfillColor%3D%23F58534%3BgradientColor%3Dnone%3B%22%20vertex%3D%221%22%20parent%3D%2210%22%3E%3CmxGeometry%20width%3D%2299%22%20height%3D%2252.26351351351351%22%20as%3D%22geometry%22%2F%3E%3C%2FmxCell%3E%3CmxCell%20id%3D%2212%22%20value%3D%22%26lt%3Bfont%20style%3D%26quot%3Bfont-size%3A%2018px%3B%26quot%3B%26gt%3Bapi%26lt%3B%2Ffont%26gt%3B%22%20style%3D%22text%3Bhtml%3D1%3BstrokeColor%3Dnone%3BfillColor%3Dnone%3Balign%3Dcenter%3BverticalAlign%3Dmiddle%3BwhiteSpace%3Dwrap%3Brounded%3D0%3B%22%20vertex%3D%221%22%20parent%3D%2210%22%3E%3CmxGeometry%20x%3D%2222.5%22%20y%3D%2252.26351351351351%22%20width%3D%2254%22%20height%3D%2222.39864864864865%22%20as%3D%22geometry%22%2F%3E%3C%2FmxCell%3E%3CmxCell%20id%3D%2213%22%20value%3D%22%22%20style%3D%22rounded%3D0%3BwhiteSpace%3Dwrap%3Bhtml%3D1%3BfontSize%3D18%3B%22%20vertex%3D%221%22%20parent%3D%229%22%3E%3CmxGeometry%20y%3D%2226.131756756756754%22%20width%3D%2263%22%20height%3D%2229.864864864864863%22%20as%3D%22geometry%22%2F%3E%3C%2FmxCell%3E%3CmxCell%20id%3D%2214%22%20value%3D%228080%22%20style%3D%22text%3Bhtml%3D1%3BstrokeColor%3Dnone%3BfillColor%3Dnone%3Balign%3Dcenter%3BverticalAlign%3Dmiddle%3BwhiteSpace%3Dwrap%3Brounded%3D0%3BfontSize%3D18%3B%22%20vertex%3D%221%22%20parent%3D%229%22%3E%3CmxGeometry%20x%3D%224.5%22%20width%3D%2254%22%20height%3D%2222.39864864864865%22%20as%3D%22geometry%22%2F%3E%3C%2FmxCell%3E%3CmxCell%20id%3D%2215%22%20value%3D%22%26lt%3Bfont%20style%3D%26quot%3Bfont-size%3A%2036px%3B%26quot%3B%26gt%3BCustom%20Bridge%26lt%3B%2Ffont%26gt%3B%22%20style%3D%22rounded%3D0%3BwhiteSpace%3Dwrap%3Bhtml%3D1%3BfontSize%3D18%3B%22%20vertex%3D%221%22%20parent%3D%222%22%3E%3CmxGeometry%20x%3D%2290%22%20width%3D%22378%22%20height%3D%2259.729729729729726%22%20as%3D%22geometry%22%2F%3E%3C%2FmxCell%3E%3CmxCell%20id%3D%2216%22%20value%3D%22%22%20style%3D%22shape%3DflexArrow%3BendArrow%3Dclassic%3BstartArrow%3Dclassic%3Bhtml%3D1%3BfontSize%3D36%3B%22%20edge%3D%221%22%20parent%3D%222%22%3E%3CmxGeometry%20width%3D%22100%22%20height%3D%22100%22%20relative%3D%221%22%20as%3D%22geometry%22%3E%3CmxPoint%20x%3D%22162%22%20y%3D%22130.65878378378378%22%20as%3D%22sourcePoint%22%2F%3E%3CmxPoint%20x%3D%22162%22%20y%3D%2263.46283783783784%22%20as%3D%22targetPoint%22%2F%3E%3C%2FmxGeometry%3E%3C%2FmxCell%3E%3CmxCell%20id%3D%2217%22%20value%3D%22%22%20style%3D%22shape%3DflexArrow%3BendArrow%3Dclassic%3BstartArrow%3Dclassic%3Bhtml%3D1%3BfontSize%3D36%3B%22%20edge%3D%221%22%20parent%3D%222%22%3E%3CmxGeometry%20width%3D%22100%22%20height%3D%22100%22%20relative%3D%221%22%20as%3D%22geometry%22%3E%3CmxPoint%20x%3D%22396%22%20y%3D%22132.15202702702703%22%20as%3D%22sourcePoint%22%2F%3E%3CmxPoint%20x%3D%22396%22%20y%3D%2264.95608108108108%22%20as%3D%22targetPoint%22%2F%3E%3C%2FmxGeometry%3E%3C%2FmxCell%3E%3CmxCell%20id%3D%2218%22%20value%3D%22%26lt%3Bfont%20style%3D%26quot%3Bfont-size%3A%2024px%3B%26quot%3B%26gt%3BReact%26lt%3B%2Ffont%26gt%3B%22%20style%3D%22shape%3Dcallout%3BwhiteSpace%3Dwrap%3Bhtml%3D1%3Bperimeter%3DcalloutPerimeter%3BfontSize%3D36%3Bposition2%3D1%3Balign%3Dcenter%3B%22%20vertex%3D%221%22%20parent%3D%222%22%3E%3CmxGeometry%20y%3D%2263.46283783783784%22%20width%3D%22117%22%20height%3D%2267.19594594594595%22%20as%3D%22geometry%22%2F%3E%3C%2FmxCell%3E%3CmxCell%20id%3D%2219%22%20value%3D%22%26lt%3Bfont%20style%3D%26quot%3Bfont-size%3A%2023px%3B%26quot%3B%26gt%3Bspring%20boot%26lt%3B%2Ffont%26gt%3B%22%20style%3D%22shape%3Dcallout%3BwhiteSpace%3Dwrap%3Bhtml%3D1%3Bperimeter%3DcalloutPerimeter%3BfontSize%3D36%3Bposition2%3D0%3Balign%3Dcenter%3B%22%20vertex%3D%221%22%20parent%3D%222%22%3E%3CmxGeometry%20x%3D%22423%22%20y%3D%2263.46283783783784%22%20width%3D%22117%22%20height%3D%2267.19594594594595%22%20as%3D%22geometry%22%2F%3E%3C%2FmxCell%3E%3CmxCell%20id%3D%2220%22%20value%3D%22%22%20style%3D%22shape%3DflexArrow%3BendArrow%3Dclassic%3Bhtml%3D1%3BfontSize%3D23%3Bwidth%3D2.3529411764705883%3BendSize%3D6.305882352941177%3BexitX%3D1%3BexitY%3D0.5%3BexitDx%3D0%3BexitDy%3D0%3B%22%20edge%3D%221%22%20parent%3D%222%22%3E%3CmxGeometry%20width%3D%2250%22%20height%3D%2250%22%20relative%3D%221%22%20as%3D%22geometry%22%3E%3CmxPoint%20x%3D%229%22%20y%3D%22300.26%22%20as%3D%22sourcePoint%22%2F%3E%3CmxPoint%20x%3D%2254%22%20y%3D%22165.00459459459466%22%20as%3D%22targetPoint%22%2F%3E%3CArray%20as%3D%22points%22%3E%3CmxPoint%20x%3D%229%22%20y%3D%22165.26%22%2F%3E%3C%2FArray%3E%3C%2FmxGeometry%3E%3C%2FmxCell%3E%3C%2Froot%3E%3C%2FmxGraphModel%3E&lt;/span&gt;" style="rounded=0;whiteSpace=wrap;html=1;fontSize=18;" vertex="1" parent="17">
                    <mxGeometry y="26.131756756756754" width="63" height="29.864864864864863" as="geometry"/>
                </mxCell>
                <mxCell id="14" value="8080" style="text;html=1;strokeColor=none;fillColor=none;align=center;verticalAlign=middle;whiteSpace=wrap;rounded=0;fontSize=18;" vertex="1" parent="17">
                    <mxGeometry x="4.5" width="54" height="22.39864864864865" as="geometry"/>
                </mxCell>
                <mxCell id="19" value="&lt;font style=&quot;font-size: 36px;&quot;&gt;Custom Bridge&lt;/font&gt;" style="rounded=0;whiteSpace=wrap;html=1;fontSize=18;" vertex="1" parent="46">
                    <mxGeometry x="90" width="378" height="59.729729729729726" as="geometry"/>
                </mxCell>
                <mxCell id="20" value="" style="shape=flexArrow;endArrow=classic;startArrow=classic;html=1;fontSize=36;" edge="1" parent="46">
                    <mxGeometry width="100" height="100" relative="1" as="geometry">
                        <mxPoint x="162" y="130.65878378378378" as="sourcePoint"/>
                        <mxPoint x="162" y="63.46283783783784" as="targetPoint"/>
                    </mxGeometry>
                </mxCell>
                <mxCell id="21" value="" style="shape=flexArrow;endArrow=classic;startArrow=classic;html=1;fontSize=36;" edge="1" parent="46">
                    <mxGeometry width="100" height="100" relative="1" as="geometry">
                        <mxPoint x="396" y="132.15202702702703" as="sourcePoint"/>
                        <mxPoint x="396" y="64.95608108108108" as="targetPoint"/>
                    </mxGeometry>
                </mxCell>
                <mxCell id="23" value="&lt;font style=&quot;font-size: 24px;&quot;&gt;React&lt;/font&gt;" style="shape=callout;whiteSpace=wrap;html=1;perimeter=calloutPerimeter;fontSize=36;position2=1;align=center;" vertex="1" parent="46">
                    <mxGeometry y="63.46283783783784" width="117" height="67.19594594594595" as="geometry"/>
                </mxCell>
                <mxCell id="24" value="&lt;font style=&quot;font-size: 23px;&quot;&gt;spring boot&lt;/font&gt;" style="shape=callout;whiteSpace=wrap;html=1;perimeter=calloutPerimeter;fontSize=36;position2=0;align=center;" vertex="1" parent="46">
                    <mxGeometry x="423" y="63.46283783783784" width="117" height="67.19594594594595" as="geometry"/>
                </mxCell>
                <mxCell id="56" value="" style="shape=flexArrow;endArrow=classic;html=1;fontSize=23;width=2.3529411764705883;endSize=6.305882352941177;exitX=1;exitY=0.5;exitDx=0;exitDy=0;" edge="1" parent="46" source="52">
                    <mxGeometry width="50" height="50" relative="1" as="geometry">
                        <mxPoint x="9" y="300.26" as="sourcePoint"/>
                        <mxPoint x="54" y="165.00459459459466" as="targetPoint"/>
                        <Array as="points">
                            <mxPoint x="9" y="165.26"/>
                        </Array>
                    </mxGeometry>
                </mxCell>
                <mxCell id="50" value="Text" style="text;html=1;strokeColor=none;fillColor=none;align=center;verticalAlign=middle;whiteSpace=wrap;rounded=0;strokeWidth=6;fontSize=23;" vertex="1" parent="80">
                    <mxGeometry x="459" y="154.5" width="60" height="30" as="geometry"/>
                </mxCell>
                <mxCell id="51" value="ホストマシン" style="text;html=1;strokeColor=none;fillColor=none;align=center;verticalAlign=middle;whiteSpace=wrap;rounded=0;strokeWidth=6;fontSize=23;" vertex="1" parent="80">
                    <mxGeometry x="122" y="5.5" width="160" height="30" as="geometry"/>
                </mxCell>
                <mxCell id="52" value="" style="rounded=0;whiteSpace=wrap;html=1;fontSize=18;" vertex="1" parent="80">
                    <mxGeometry x="94" y="199.49581081081084" width="63" height="39.14" as="geometry"/>
                </mxCell>
                <mxCell id="53" value="3000" style="text;html=1;strokeColor=none;fillColor=none;align=center;verticalAlign=middle;whiteSpace=wrap;rounded=0;fontSize=18;" vertex="1" parent="80">
                    <mxGeometry x="130" y="170.49581081081084" width="54" height="22.39864864864865" as="geometry"/>
                </mxCell>
                <mxCell id="54" value="" style="shape=flexArrow;endArrow=classic;html=1;fontSize=23;width=2.3529411764705883;endSize=6.305882352941177;" edge="1" parent="80" target="52">
                    <mxGeometry width="50" height="50" relative="1" as="geometry">
                        <mxPoint x="49" y="354.5" as="sourcePoint"/>
                        <mxPoint x="39" y="224.5" as="targetPoint"/>
                        <Array as="points">
                            <mxPoint x="49" y="344.5"/>
                            <mxPoint x="49" y="219.5"/>
                        </Array>
                    </mxGeometry>
                </mxCell>
                <mxCell id="55" value="http://localhost:3000" style="text;html=1;strokeColor=none;fillColor=none;align=center;verticalAlign=middle;whiteSpace=wrap;rounded=0;strokeWidth=6;fontSize=23;" vertex="1" parent="80">
                    <mxGeometry y="360.5" width="225" height="30" as="geometry"/>
                </mxCell>
                <mxCell id="77" value="8080" style="text;html=1;strokeColor=none;fillColor=none;align=center;verticalAlign=middle;whiteSpace=wrap;rounded=0;fontSize=18;" vertex="1" parent="80">
                    <mxGeometry x="459" y="294.49918918918917" width="54" height="22.39864864864865" as="geometry"/>
                </mxCell>
                <mxCell id="78" value="" style="shape=flexArrow;endArrow=classic;html=1;fontSize=23;width=2.3529411764705883;endSize=6.305882352941177;entryX=0;entryY=0.25;entryDx=0;entryDy=0;" edge="1" parent="80">
                    <mxGeometry width="50" height="50" relative="1" as="geometry">
                        <mxPoint x="441" y="388.5" as="sourcePoint"/>
                        <mxPoint x="477" y="220.03716216216185" as="targetPoint"/>
                        <Array as="points">
                            <mxPoint x="440.5" y="388.5"/>
                            <mxPoint x="441" y="222.5"/>
                        </Array>
                    </mxGeometry>
                </mxCell>
                <mxCell id="76" value="&lt;span style=&quot;color: rgba(0, 0, 0, 0); font-family: monospace; font-size: 0px; text-align: start;&quot;&gt;%3CmxGraphModel%3E%3Croot%3E%3CmxCell%20id%3D%220%22%2F%3E%3CmxCell%20id%3D%221%22%20parent%3D%220%22%2F%3E%3CmxCell%20id%3D%222%22%20value%3D%22%22%20style%3D%22group%22%20vertex%3D%221%22%20connectable%3D%220%22%20parent%3D%221%22%3E%3CmxGeometry%20x%3D%22180%22%20y%3D%22170%22%20width%3D%22540%22%20height%3D%22221%22%20as%3D%22geometry%22%2F%3E%3C%2FmxCell%3E%3CmxCell%20id%3D%223%22%20value%3D%22%22%20style%3D%22group%22%20vertex%3D%221%22%20connectable%3D%220%22%20parent%3D%222%22%3E%3CmxGeometry%20x%3D%2254%22%20y%3D%22124.6858108108108%22%20width%3D%22162%22%20height%3D%2295.56756756756756%22%20as%3D%22geometry%22%2F%3E%3C%2FmxCell%3E%3CmxCell%20id%3D%224%22%20value%3D%22%22%20style%3D%22group%22%20vertex%3D%221%22%20connectable%3D%220%22%20parent%3D%223%22%3E%3CmxGeometry%20x%3D%2263%22%20y%3D%2213.43918918918919%22%20width%3D%2299%22%20height%3D%2282.12837837837837%22%20as%3D%22geometry%22%2F%3E%3C%2FmxCell%3E%3CmxCell%20id%3D%225%22%20value%3D%22%22%20style%3D%22outlineConnect%3D0%3Bdashed%3D0%3BverticalLabelPosition%3Dbottom%3BverticalAlign%3Dtop%3Balign%3Dcenter%3Bhtml%3D1%3Bshape%3Dmxgraph.aws3.ec2_compute_container%3BfillColor%3D%23F58534%3BgradientColor%3Dnone%3B%22%20vertex%3D%221%22%20parent%3D%224%22%3E%3CmxGeometry%20width%3D%2299%22%20height%3D%2252.26351351351351%22%20as%3D%22geometry%22%2F%3E%3C%2FmxCell%3E%3CmxCell%20id%3D%226%22%20value%3D%22%26lt%3Bfont%20style%3D%26quot%3Bfont-size%3A%2018px%3B%26quot%3B%26gt%3BWeb%26lt%3B%2Ffont%26gt%3B%22%20style%3D%22text%3Bhtml%3D1%3BstrokeColor%3Dnone%3BfillColor%3Dnone%3Balign%3Dcenter%3BverticalAlign%3Dmiddle%3BwhiteSpace%3Dwrap%3Brounded%3D0%3B%22%20vertex%3D%221%22%20parent%3D%224%22%3E%3CmxGeometry%20x%3D%2222.5%22%20y%3D%2253.01013513513514%22%20width%3D%2254%22%20height%3D%2222.39864864864865%22%20as%3D%22geometry%22%2F%3E%3C%2FmxCell%3E%3CmxCell%20id%3D%227%22%20value%3D%22%22%20style%3D%22rounded%3D0%3BwhiteSpace%3Dwrap%3Bhtml%3D1%3BfontSize%3D18%3B%22%20vertex%3D%221%22%20parent%3D%223%22%3E%3CmxGeometry%20y%3D%2220%22%20width%3D%2263%22%20height%3D%2239.14%22%20as%3D%22geometry%22%2F%3E%3C%2FmxCell%3E%3CmxCell%20id%3D%228%22%20value%3D%223000%22%20style%3D%22text%3Bhtml%3D1%3BstrokeColor%3Dnone%3BfillColor%3Dnone%3Balign%3Dcenter%3BverticalAlign%3Dmiddle%3BwhiteSpace%3Dwrap%3Brounded%3D0%3BfontSize%3D18%3B%22%20vertex%3D%221%22%20parent%3D%223%22%3E%3CmxGeometry%20x%3D%227.2%22%20width%3D%2254%22%20height%3D%2222.39864864864865%22%20as%3D%22geometry%22%2F%3E%3C%2FmxCell%3E%3CmxCell%20id%3D%229%22%20value%3D%22%22%20style%3D%22group%22%20vertex%3D%221%22%20connectable%3D%220%22%20parent%3D%222%22%3E%3CmxGeometry%20x%3D%22288%22%20y%3D%22123.93918918918918%22%20width%3D%22162%22%20height%3D%2297.0608108108108%22%20as%3D%22geometry%22%2F%3E%3C%2FmxCell%3E%3CmxCell%20id%3D%2210%22%20value%3D%22%22%20style%3D%22group%22%20vertex%3D%221%22%20connectable%3D%220%22%20parent%3D%229%22%3E%3CmxGeometry%20x%3D%2263%22%20y%3D%2214.932432432432432%22%20width%3D%2299%22%20height%3D%2282.12837837837837%22%20as%3D%22geometry%22%2F%3E%3C%2FmxCell%3E%3CmxCell%20id%3D%2211%22%20value%3D%22%22%20style%3D%22outlineConnect%3D0%3Bdashed%3D0%3BverticalLabelPosition%3Dbottom%3BverticalAlign%3Dtop%3Balign%3Dcenter%3Bhtml%3D1%3Bshape%3Dmxgraph.aws3.ec2_compute_container%3BfillColor%3D%23F58534%3BgradientColor%3Dnone%3B%22%20vertex%3D%221%22%20parent%3D%2210%22%3E%3CmxGeometry%20width%3D%2299%22%20height%3D%2252.26351351351351%22%20as%3D%22geometry%22%2F%3E%3C%2FmxCell%3E%3CmxCell%20id%3D%2212%22%20value%3D%22%26lt%3Bfont%20style%3D%26quot%3Bfont-size%3A%2018px%3B%26quot%3B%26gt%3Bapi%26lt%3B%2Ffont%26gt%3B%22%20style%3D%22text%3Bhtml%3D1%3BstrokeColor%3Dnone%3BfillColor%3Dnone%3Balign%3Dcenter%3BverticalAlign%3Dmiddle%3BwhiteSpace%3Dwrap%3Brounded%3D0%3B%22%20vertex%3D%221%22%20parent%3D%2210%22%3E%3CmxGeometry%20x%3D%2222.5%22%20y%3D%2252.26351351351351%22%20width%3D%2254%22%20height%3D%2222.39864864864865%22%20as%3D%22geometry%22%2F%3E%3C%2FmxCell%3E%3CmxCell%20id%3D%2213%22%20value%3D%22%22%20style%3D%22rounded%3D0%3BwhiteSpace%3Dwrap%3Bhtml%3D1%3BfontSize%3D18%3B%22%20vertex%3D%221%22%20parent%3D%229%22%3E%3CmxGeometry%20y%3D%2226.131756756756754%22%20width%3D%2263%22%20height%3D%2229.864864864864863%22%20as%3D%22geometry%22%2F%3E%3C%2FmxCell%3E%3CmxCell%20id%3D%2214%22%20value%3D%228080%22%20style%3D%22text%3Bhtml%3D1%3BstrokeColor%3Dnone%3BfillColor%3Dnone%3Balign%3Dcenter%3BverticalAlign%3Dmiddle%3BwhiteSpace%3Dwrap%3Brounded%3D0%3BfontSize%3D18%3B%22%20vertex%3D%221%22%20parent%3D%229%22%3E%3CmxGeometry%20x%3D%224.5%22%20width%3D%2254%22%20height%3D%2222.39864864864865%22%20as%3D%22geometry%22%2F%3E%3C%2FmxCell%3E%3CmxCell%20id%3D%2215%22%20value%3D%22%26lt%3Bfont%20style%3D%26quot%3Bfont-size%3A%2036px%3B%26quot%3B%26gt%3BCustom%20Bridge%26lt%3B%2Ffont%26gt%3B%22%20style%3D%22rounded%3D0%3BwhiteSpace%3Dwrap%3Bhtml%3D1%3BfontSize%3D18%3B%22%20vertex%3D%221%22%20parent%3D%222%22%3E%3CmxGeometry%20x%3D%2290%22%20width%3D%22378%22%20height%3D%2259.729729729729726%22%20as%3D%22geometry%22%2F%3E%3C%2FmxCell%3E%3CmxCell%20id%3D%2216%22%20value%3D%22%22%20style%3D%22shape%3DflexArrow%3BendArrow%3Dclassic%3BstartArrow%3Dclassic%3Bhtml%3D1%3BfontSize%3D36%3B%22%20edge%3D%221%22%20parent%3D%222%22%3E%3CmxGeometry%20width%3D%22100%22%20height%3D%22100%22%20relative%3D%221%22%20as%3D%22geometry%22%3E%3CmxPoint%20x%3D%22162%22%20y%3D%22130.65878378378378%22%20as%3D%22sourcePoint%22%2F%3E%3CmxPoint%20x%3D%22162%22%20y%3D%2263.46283783783784%22%20as%3D%22targetPoint%22%2F%3E%3C%2FmxGeometry%3E%3C%2FmxCell%3E%3CmxCell%20id%3D%2217%22%20value%3D%22%22%20style%3D%22shape%3DflexArrow%3BendArrow%3Dclassic%3BstartArrow%3Dclassic%3Bhtml%3D1%3BfontSize%3D36%3B%22%20edge%3D%221%22%20parent%3D%222%22%3E%3CmxGeometry%20width%3D%22100%22%20height%3D%22100%22%20relative%3D%221%22%20as%3D%22geometry%22%3E%3CmxPoint%20x%3D%22396%22%20y%3D%22132.15202702702703%22%20as%3D%22sourcePoint%22%2F%3E%3CmxPoint%20x%3D%22396%22%20y%3D%2264.95608108108108%22%20as%3D%22targetPoint%22%2F%3E%3C%2FmxGeometry%3E%3C%2FmxCell%3E%3CmxCell%20id%3D%2218%22%20value%3D%22%26lt%3Bfont%20style%3D%26quot%3Bfont-size%3A%2024px%3B%26quot%3B%26gt%3BReact%26lt%3B%2Ffont%26gt%3B%22%20style%3D%22shape%3Dcallout%3BwhiteSpace%3Dwrap%3Bhtml%3D1%3Bperimeter%3DcalloutPerimeter%3BfontSize%3D36%3Bposition2%3D1%3Balign%3Dcenter%3B%22%20vertex%3D%221%22%20parent%3D%222%22%3E%3CmxGeometry%20y%3D%2263.46283783783784%22%20width%3D%22117%22%20height%3D%2267.19594594594595%22%20as%3D%22geometry%22%2F%3E%3C%2FmxCell%3E%3CmxCell%20id%3D%2219%22%20value%3D%22%26lt%3Bfont%20style%3D%26quot%3Bfont-size%3A%2023px%3B%26quot%3B%26gt%3Bspring%20boot%26lt%3B%2Ffont%26gt%3B%22%20style%3D%22shape%3Dcallout%3BwhiteSpace%3Dwrap%3Bhtml%3D1%3Bperimeter%3DcalloutPerimeter%3BfontSize%3D36%3Bposition2%3D0%3Balign%3Dcenter%3B%22%20vertex%3D%221%22%20parent%3D%222%22%3E%3CmxGeometry%20x%3D%22423%22%20y%3D%2263.46283783783784%22%20width%3D%22117%22%20height%3D%2267.19594594594595%22%20as%3D%22geometry%22%2F%3E%3C%2FmxCell%3E%3CmxCell%20id%3D%2220%22%20value%3D%22%22%20style%3D%22shape%3DflexArrow%3BendArrow%3Dclassic%3Bhtml%3D1%3BfontSize%3D23%3Bwidth%3D2.3529411764705883%3BendSize%3D6.305882352941177%3BexitX%3D1%3BexitY%3D0.5%3BexitDx%3D0%3BexitDy%3D0%3B%22%20edge%3D%221%22%20parent%3D%222%22%3E%3CmxGeometry%20width%3D%2250%22%20height%3D%2250%22%20relative%3D%221%22%20as%3D%22geometry%22%3E%3CmxPoint%20x%3D%229%22%20y%3D%22300.26%22%20as%3D%22sourcePoint%22%2F%3E%3CmxPoint%20x%3D%2254%22%20y%3D%22165.00459459459466%22%20as%3D%22targetPoint%22%2F%3E%3CArray%20as%3D%22points%22%3E%3CmxPoint%20x%3D%229%22%20y%3D%22165.26%22%2F%3E%3C%2FArray%3E%3C%2FmxGeometry%3E%3C%2FmxCell%3E%3C%2Froot%3E%3C%2FmxGraphModel%3E&lt;/span&gt;" style="rounded=0;whiteSpace=wrap;html=1;fontSize=18;rotation=90;" vertex="1" parent="80">
                    <mxGeometry x="409" y="314.50094594594594" width="63" height="29.864864864864863" as="geometry"/>
                </mxCell>
                <mxCell id="79" value="http://localhost:8080/api/hello" style="text;html=1;strokeColor=none;fillColor=none;align=center;verticalAlign=middle;whiteSpace=wrap;rounded=0;strokeWidth=6;fontSize=23;" vertex="1" parent="80">
                    <mxGeometry x="334.5" y="390.5" width="335.5" height="34" as="geometry"/>
                </mxCell>
            </root>
        </mxGraphModel>
    </diagram>
</mxfile>